<mxfile host="Electron" modified="2024-06-24T16:37:54.720Z" agent="Mozilla/5.0 (Windows NT 10.0; Win64; x64) AppleWebKit/537.36 (KHTML, like Gecko) draw.io/24.6.1 Chrome/124.0.6367.207 Electron/30.0.6 Safari/537.36" etag="9PEV4dbnXQDnd8yR-Jl-" version="24.6.1" type="device">
  <diagram name="Page-1" id="1XfmQ2RfSENlsuqOlmP2">
    <mxGraphModel dx="1323" dy="932" grid="1" gridSize="10" guides="1" tooltips="1" connect="1" arrows="1" fold="1" page="1" pageScale="1" pageWidth="1169" pageHeight="827" math="0" shadow="0">
      <root>
        <mxCell id="0" />
        <mxCell id="1" parent="0" />
        <mxCell id="ol1E6UsP-KSh0mB5dsv8-2" value="" style="rounded=0;whiteSpace=wrap;html=1;strokeColor=none;fillColor=#A3A3A3;" vertex="1" parent="1">
          <mxGeometry x="80" y="40" width="160" height="720" as="geometry" />
        </mxCell>
        <mxCell id="ol1E6UsP-KSh0mB5dsv8-3" value="" style="rounded=0;whiteSpace=wrap;html=1;strokeColor=none;fillColor=#5D54A8;" vertex="1" parent="1">
          <mxGeometry x="240" y="40" width="640" height="720" as="geometry" />
        </mxCell>
        <mxCell id="ol1E6UsP-KSh0mB5dsv8-4" value="" style="rounded=0;whiteSpace=wrap;html=1;strokeColor=none;fillColor=#589151;" vertex="1" parent="1">
          <mxGeometry x="460" y="40" width="420" height="470" as="geometry" />
        </mxCell>
        <mxCell id="ol1E6UsP-KSh0mB5dsv8-5" value="&lt;font color=&quot;#ffffff&quot; style=&quot;font-size: 20px;&quot;&gt;&lt;b&gt;Supporting&lt;/b&gt;&lt;/font&gt;" style="text;html=1;align=center;verticalAlign=middle;resizable=0;points=[];autosize=1;strokeColor=none;fillColor=none;" vertex="1" parent="1">
          <mxGeometry x="290" y="255" width="130" height="40" as="geometry" />
        </mxCell>
        <mxCell id="ol1E6UsP-KSh0mB5dsv8-6" value="&lt;font color=&quot;#ffffff&quot; style=&quot;font-size: 20px;&quot;&gt;&lt;b&gt;Generic&lt;/b&gt;&lt;/font&gt;" style="text;html=1;align=center;verticalAlign=middle;resizable=0;points=[];autosize=1;strokeColor=none;fillColor=none;" vertex="1" parent="1">
          <mxGeometry x="110" y="255" width="100" height="40" as="geometry" />
        </mxCell>
        <mxCell id="ol1E6UsP-KSh0mB5dsv8-7" value="&lt;font color=&quot;#ffffff&quot; style=&quot;font-size: 20px;&quot;&gt;&lt;b&gt;Core&lt;/b&gt;&lt;/font&gt;" style="text;html=1;align=center;verticalAlign=middle;resizable=0;points=[];autosize=1;strokeColor=none;fillColor=none;" vertex="1" parent="1">
          <mxGeometry x="635" y="255" width="70" height="40" as="geometry" />
        </mxCell>
        <mxCell id="ol1E6UsP-KSh0mB5dsv8-8" value="" style="endArrow=classic;html=1;rounded=0;" edge="1" parent="1">
          <mxGeometry width="50" height="50" relative="1" as="geometry">
            <mxPoint x="60" y="780" as="sourcePoint" />
            <mxPoint x="60" y="40" as="targetPoint" />
          </mxGeometry>
        </mxCell>
        <mxCell id="ol1E6UsP-KSh0mB5dsv8-9" value="" style="endArrow=classic;html=1;rounded=0;" edge="1" parent="1">
          <mxGeometry width="50" height="50" relative="1" as="geometry">
            <mxPoint x="60" y="780" as="sourcePoint" />
            <mxPoint x="880" y="780" as="targetPoint" />
          </mxGeometry>
        </mxCell>
        <mxCell id="ol1E6UsP-KSh0mB5dsv8-10" value="&lt;font style=&quot;font-size: 18px;&quot;&gt;Low&lt;/font&gt;" style="text;html=1;align=center;verticalAlign=middle;whiteSpace=wrap;rounded=0;" vertex="1" parent="1">
          <mxGeometry x="60" y="780" width="60" height="30" as="geometry" />
        </mxCell>
        <mxCell id="ol1E6UsP-KSh0mB5dsv8-11" value="&lt;font style=&quot;font-size: 18px;&quot;&gt;High&lt;/font&gt;" style="text;html=1;align=center;verticalAlign=middle;whiteSpace=wrap;rounded=0;" vertex="1" parent="1">
          <mxGeometry x="810" y="780" width="60" height="30" as="geometry" />
        </mxCell>
        <mxCell id="ol1E6UsP-KSh0mB5dsv8-13" value="&lt;font style=&quot;font-size: 18px;&quot;&gt;High&lt;/font&gt;" style="text;html=1;align=center;verticalAlign=middle;whiteSpace=wrap;rounded=0;rotation=-90;" vertex="1" parent="1">
          <mxGeometry x="10" y="70" width="60" height="30" as="geometry" />
        </mxCell>
        <mxCell id="ol1E6UsP-KSh0mB5dsv8-14" value="&lt;font style=&quot;font-size: 18px;&quot;&gt;Low&lt;/font&gt;" style="text;html=1;align=center;verticalAlign=middle;whiteSpace=wrap;rounded=0;rotation=-90;" vertex="1" parent="1">
          <mxGeometry x="10" y="730" width="60" height="30" as="geometry" />
        </mxCell>
        <mxCell id="ol1E6UsP-KSh0mB5dsv8-15" value="" style="ellipse;whiteSpace=wrap;html=1;aspect=fixed;strokeWidth=2;fillColor=#FF531F;" vertex="1" parent="1">
          <mxGeometry x="960" y="80" width="40" height="40" as="geometry" />
        </mxCell>
        <mxCell id="ol1E6UsP-KSh0mB5dsv8-17" value="&lt;font style=&quot;font-size: 17px;&quot;&gt;Bounded Context&lt;/font&gt;&lt;div style=&quot;font-size: 17px;&quot;&gt;&lt;font style=&quot;font-size: 17px;&quot;&gt;(current position)&lt;/font&gt;&lt;/div&gt;" style="text;html=1;align=center;verticalAlign=middle;whiteSpace=wrap;rounded=0;" vertex="1" parent="1">
          <mxGeometry x="1000" y="80" width="160" height="40" as="geometry" />
        </mxCell>
        <mxCell id="ol1E6UsP-KSh0mB5dsv8-18" value="" style="ellipse;whiteSpace=wrap;html=1;aspect=fixed;strokeWidth=2;fillColor=#EBE8E3;" vertex="1" parent="1">
          <mxGeometry x="960" y="140" width="40" height="40" as="geometry" />
        </mxCell>
        <mxCell id="ol1E6UsP-KSh0mB5dsv8-19" value="&lt;font style=&quot;font-size: 17px;&quot;&gt;Bounded Context&lt;/font&gt;&lt;div style=&quot;font-size: 17px;&quot;&gt;&lt;font style=&quot;font-size: 17px;&quot;&gt;(future position)&lt;/font&gt;&lt;/div&gt;" style="text;html=1;align=center;verticalAlign=middle;whiteSpace=wrap;rounded=0;" vertex="1" parent="1">
          <mxGeometry x="1000" y="140" width="160" height="40" as="geometry" />
        </mxCell>
        <mxCell id="ol1E6UsP-KSh0mB5dsv8-21" value="&lt;font style=&quot;font-size: 17px;&quot;&gt;Movement&lt;/font&gt;&lt;div&gt;&lt;font style=&quot;font-size: 17px;&quot;&gt;over time&lt;/font&gt;&lt;/div&gt;" style="text;html=1;align=center;verticalAlign=middle;whiteSpace=wrap;rounded=0;" vertex="1" parent="1">
          <mxGeometry x="1000" y="200" width="160" height="40" as="geometry" />
        </mxCell>
        <mxCell id="ol1E6UsP-KSh0mB5dsv8-22" value="" style="ellipse;whiteSpace=wrap;html=1;aspect=fixed;strokeWidth=2;fillColor=#66D1FF;" vertex="1" parent="1">
          <mxGeometry x="960" y="260" width="40" height="40" as="geometry" />
        </mxCell>
        <mxCell id="ol1E6UsP-KSh0mB5dsv8-23" value="&lt;span style=&quot;font-size: 17px;&quot;&gt;Big-bet sub-domain&lt;/span&gt;" style="text;html=1;align=center;verticalAlign=middle;whiteSpace=wrap;rounded=0;" vertex="1" parent="1">
          <mxGeometry x="1000" y="260" width="160" height="40" as="geometry" />
        </mxCell>
        <mxCell id="ol1E6UsP-KSh0mB5dsv8-24" value="" style="ellipse;whiteSpace=wrap;html=1;aspect=fixed;strokeWidth=2;fillColor=#FFDC2E;" vertex="1" parent="1">
          <mxGeometry x="960" y="320" width="40" height="40" as="geometry" />
        </mxCell>
        <mxCell id="ol1E6UsP-KSh0mB5dsv8-25" value="&lt;span style=&quot;font-size: 17px;&quot;&gt;Platform sub-domain&lt;/span&gt;" style="text;html=1;align=center;verticalAlign=middle;whiteSpace=wrap;rounded=0;" vertex="1" parent="1">
          <mxGeometry x="1000" y="320" width="160" height="40" as="geometry" />
        </mxCell>
        <mxCell id="ol1E6UsP-KSh0mB5dsv8-26" value="" style="ellipse;whiteSpace=wrap;html=1;aspect=fixed;strokeWidth=2;fillColor=#91FF47;" vertex="1" parent="1">
          <mxGeometry x="960" y="374" width="40" height="40" as="geometry" />
        </mxCell>
        <mxCell id="ol1E6UsP-KSh0mB5dsv8-27" value="&lt;span style=&quot;font-size: 17px;&quot;&gt;Outsourced sub-domain&lt;/span&gt;" style="text;html=1;align=center;verticalAlign=middle;whiteSpace=wrap;rounded=0;" vertex="1" parent="1">
          <mxGeometry x="1000" y="374" width="160" height="40" as="geometry" />
        </mxCell>
        <mxCell id="ol1E6UsP-KSh0mB5dsv8-34" value="&lt;div style=&quot;&quot;&gt;&lt;b style=&quot;&quot;&gt;&lt;font style=&quot;font-size: 26px;&quot;&gt;Notation&lt;/font&gt;&lt;/b&gt;&lt;/div&gt;" style="text;html=1;align=center;verticalAlign=middle;whiteSpace=wrap;rounded=0;" vertex="1" parent="1">
          <mxGeometry x="960" y="10" width="200" height="40" as="geometry" />
        </mxCell>
        <mxCell id="ol1E6UsP-KSh0mB5dsv8-35" value="" style="endArrow=none;dashed=1;html=1;dashPattern=1 3;strokeWidth=2;rounded=0;entryX=0;entryY=1;entryDx=0;entryDy=0;" edge="1" parent="1" target="ol1E6UsP-KSh0mB5dsv8-21">
          <mxGeometry width="50" height="50" relative="1" as="geometry">
            <mxPoint x="960" y="200" as="sourcePoint" />
            <mxPoint x="970" y="210" as="targetPoint" />
          </mxGeometry>
        </mxCell>
        <mxCell id="ol1E6UsP-KSh0mB5dsv8-36" value="" style="endArrow=classic;html=1;rounded=0;entryX=0;entryY=1;entryDx=0;entryDy=0;" edge="1" parent="1" target="ol1E6UsP-KSh0mB5dsv8-21">
          <mxGeometry width="50" height="50" relative="1" as="geometry">
            <mxPoint x="990" y="230" as="sourcePoint" />
            <mxPoint x="910" y="270" as="targetPoint" />
          </mxGeometry>
        </mxCell>
        <mxCell id="ol1E6UsP-KSh0mB5dsv8-38" value="&lt;div style=&quot;&quot;&gt;&lt;b style=&quot;&quot;&gt;&lt;font style=&quot;font-size: 22px;&quot;&gt;Team topologies&lt;/font&gt;&lt;/b&gt;&lt;/div&gt;" style="text;html=1;align=center;verticalAlign=middle;whiteSpace=wrap;rounded=0;" vertex="1" parent="1">
          <mxGeometry x="960" y="440" width="200" height="40" as="geometry" />
        </mxCell>
        <mxCell id="ol1E6UsP-KSh0mB5dsv8-42" value="&lt;font style=&quot;font-size: 18px;&quot;&gt;&lt;b&gt;Model Complexity&lt;/b&gt;&lt;/font&gt;" style="text;html=1;align=center;verticalAlign=middle;whiteSpace=wrap;rounded=0;rotation=-90;" vertex="1" parent="1">
          <mxGeometry x="-75" y="364" width="230" height="30" as="geometry" />
        </mxCell>
        <mxCell id="ol1E6UsP-KSh0mB5dsv8-43" value="&lt;font style=&quot;font-size: 18px;&quot;&gt;&lt;b&gt;Business Differentiation&lt;/b&gt;&lt;/font&gt;" style="text;html=1;align=center;verticalAlign=middle;whiteSpace=wrap;rounded=0;" vertex="1" parent="1">
          <mxGeometry x="270" y="780" width="420" height="30" as="geometry" />
        </mxCell>
        <mxCell id="ol1E6UsP-KSh0mB5dsv8-1" value="Bounded Contexts" parent="0" />
        <mxCell id="ol1E6UsP-KSh0mB5dsv8-44" value="" style="ellipse;whiteSpace=wrap;html=1;aspect=fixed;strokeWidth=2;fillColor=#FF531F;" vertex="1" parent="ol1E6UsP-KSh0mB5dsv8-1">
          <mxGeometry x="340" y="530" width="40" height="40" as="geometry" />
        </mxCell>
        <mxCell id="ol1E6UsP-KSh0mB5dsv8-45" value="" style="ellipse;whiteSpace=wrap;html=1;aspect=fixed;strokeWidth=2;fillColor=#FF531F;" vertex="1" parent="ol1E6UsP-KSh0mB5dsv8-1">
          <mxGeometry x="140" y="140" width="40" height="40" as="geometry" />
        </mxCell>
        <mxCell id="ol1E6UsP-KSh0mB5dsv8-46" value="" style="ellipse;whiteSpace=wrap;html=1;aspect=fixed;strokeWidth=2;fillColor=#FF531F;" vertex="1" parent="ol1E6UsP-KSh0mB5dsv8-1">
          <mxGeometry x="260" y="680" width="40" height="40" as="geometry" />
        </mxCell>
        <mxCell id="ol1E6UsP-KSh0mB5dsv8-47" value="" style="ellipse;whiteSpace=wrap;html=1;aspect=fixed;strokeWidth=2;fillColor=#FF531F;" vertex="1" parent="ol1E6UsP-KSh0mB5dsv8-1">
          <mxGeometry x="140" y="460" width="40" height="40" as="geometry" />
        </mxCell>
        <mxCell id="ol1E6UsP-KSh0mB5dsv8-48" value="" style="ellipse;whiteSpace=wrap;html=1;aspect=fixed;strokeWidth=2;fillColor=#FF531F;" vertex="1" parent="ol1E6UsP-KSh0mB5dsv8-1">
          <mxGeometry x="410" y="180" width="40" height="40" as="geometry" />
        </mxCell>
        <mxCell id="ol1E6UsP-KSh0mB5dsv8-49" value="" style="ellipse;whiteSpace=wrap;html=1;aspect=fixed;strokeWidth=2;fillColor=#FF531F;" vertex="1" parent="ol1E6UsP-KSh0mB5dsv8-1">
          <mxGeometry x="600" y="590" width="40" height="40" as="geometry" />
        </mxCell>
        <mxCell id="ol1E6UsP-KSh0mB5dsv8-50" value="" style="ellipse;whiteSpace=wrap;html=1;aspect=fixed;strokeWidth=2;fillColor=#FF531F;" vertex="1" parent="ol1E6UsP-KSh0mB5dsv8-1">
          <mxGeometry x="750" y="130" width="40" height="40" as="geometry" />
        </mxCell>
        <mxCell id="ol1E6UsP-KSh0mB5dsv8-51" value="&lt;span style=&quot;font-size: 17px;&quot;&gt;&lt;b&gt;Матчинг&lt;/b&gt;&lt;/span&gt;" style="text;html=1;align=center;verticalAlign=middle;whiteSpace=wrap;rounded=0;" vertex="1" parent="ol1E6UsP-KSh0mB5dsv8-1">
          <mxGeometry x="690" y="80" width="160" height="40" as="geometry" />
        </mxCell>
        <mxCell id="ol1E6UsP-KSh0mB5dsv8-52" value="&lt;span style=&quot;font-size: 17px;&quot;&gt;&lt;b&gt;Документооборот&lt;/b&gt;&lt;/span&gt;" style="text;html=1;align=center;verticalAlign=middle;whiteSpace=wrap;rounded=0;" vertex="1" parent="ol1E6UsP-KSh0mB5dsv8-1">
          <mxGeometry x="350" y="130" width="160" height="40" as="geometry" />
        </mxCell>
        <mxCell id="ol1E6UsP-KSh0mB5dsv8-53" value="&lt;span style=&quot;font-size: 17px;&quot;&gt;&lt;b&gt;Контроль качества&lt;/b&gt;&lt;/span&gt;" style="text;html=1;align=center;verticalAlign=middle;whiteSpace=wrap;rounded=0;" vertex="1" parent="ol1E6UsP-KSh0mB5dsv8-1">
          <mxGeometry x="540" y="540" width="160" height="40" as="geometry" />
        </mxCell>
        <mxCell id="ol1E6UsP-KSh0mB5dsv8-54" value="&lt;span style=&quot;font-size: 17px;&quot;&gt;&lt;b&gt;Тотализатор&lt;/b&gt;&lt;/span&gt;" style="text;html=1;align=center;verticalAlign=middle;whiteSpace=wrap;rounded=0;" vertex="1" parent="ol1E6UsP-KSh0mB5dsv8-1">
          <mxGeometry x="200" y="630" width="160" height="40" as="geometry" />
        </mxCell>
        <mxCell id="ol1E6UsP-KSh0mB5dsv8-55" value="&lt;b style=&quot;font-size: 17px;&quot;&gt;Сборка расходников&lt;/b&gt;" style="text;html=1;align=center;verticalAlign=middle;whiteSpace=wrap;rounded=0;" vertex="1" parent="ol1E6UsP-KSh0mB5dsv8-1">
          <mxGeometry x="280" y="480" width="160" height="40" as="geometry" />
        </mxCell>
        <mxCell id="ol1E6UsP-KSh0mB5dsv8-56" value="&lt;span style=&quot;font-size: 17px;&quot;&gt;&lt;b&gt;Кадры&lt;/b&gt;&lt;/span&gt;" style="text;html=1;align=center;verticalAlign=middle;whiteSpace=wrap;rounded=0;" vertex="1" parent="ol1E6UsP-KSh0mB5dsv8-1">
          <mxGeometry x="80" y="414" width="160" height="40" as="geometry" />
        </mxCell>
        <mxCell id="ol1E6UsP-KSh0mB5dsv8-57" value="&lt;span style=&quot;font-size: 17px;&quot;&gt;&lt;b&gt;Выплаты&lt;/b&gt;&lt;/span&gt;" style="text;html=1;align=center;verticalAlign=middle;whiteSpace=wrap;rounded=0;" vertex="1" parent="ol1E6UsP-KSh0mB5dsv8-1">
          <mxGeometry x="80" y="90" width="160" height="40" as="geometry" />
        </mxCell>
        <mxCell id="ol1E6UsP-KSh0mB5dsv8-58" value="" style="ellipse;whiteSpace=wrap;html=1;aspect=fixed;strokeWidth=2;fillColor=#FF531F;" vertex="1" parent="ol1E6UsP-KSh0mB5dsv8-1">
          <mxGeometry x="750" y="350" width="40" height="40" as="geometry" />
        </mxCell>
        <mxCell id="ol1E6UsP-KSh0mB5dsv8-59" value="&lt;span style=&quot;font-size: 17px;&quot;&gt;&lt;b&gt;Развитие&lt;/b&gt;&lt;/span&gt;" style="text;html=1;align=center;verticalAlign=middle;whiteSpace=wrap;rounded=0;" vertex="1" parent="ol1E6UsP-KSh0mB5dsv8-1">
          <mxGeometry x="690" y="300" width="160" height="40" as="geometry" />
        </mxCell>
        <mxCell id="ol1E6UsP-KSh0mB5dsv8-60" value="" style="ellipse;whiteSpace=wrap;html=1;aspect=fixed;strokeWidth=2;fillColor=#FF531F;" vertex="1" parent="ol1E6UsP-KSh0mB5dsv8-1">
          <mxGeometry x="340" y="360" width="40" height="40" as="geometry" />
        </mxCell>
        <mxCell id="ol1E6UsP-KSh0mB5dsv8-61" value="&lt;span style=&quot;font-size: 17px;&quot;&gt;&lt;b&gt;Тестирование воркеров&lt;/b&gt;&lt;/span&gt;" style="text;html=1;align=center;verticalAlign=middle;whiteSpace=wrap;rounded=0;" vertex="1" parent="ol1E6UsP-KSh0mB5dsv8-1">
          <mxGeometry x="280" y="310" width="160" height="40" as="geometry" />
        </mxCell>
      </root>
    </mxGraphModel>
  </diagram>
</mxfile>
